<?xml version="1.0" encoding="UTF-8"?>
<svg width="1111px" height="590px" viewBox="0 0 1111 590" version="1.1" xmlns="http://www.w3.org/2000/svg" xmlns:xlink="http://www.w3.org/1999/xlink">
    <!-- Generator: Sketch 53.2 (72643) - https://sketchapp.com -->
    <title>accounts</title>
    <desc>Created with Sketch.</desc>
    <defs>
        <linearGradient x1="49.9980214%" y1="99.9956618%" x2="49.9980214%" y2="0.000918730404%" id="linearGradient-1">
            <stop stop-color="#808080" stop-opacity="0.25" offset="0%"></stop>
            <stop stop-color="#808080" stop-opacity="0.12" offset="54%"></stop>
            <stop stop-color="#808080" stop-opacity="0.1" offset="100%"></stop>
        </linearGradient>
        <linearGradient x1="45%" y1="82.5%" x2="45%" y2="17.5%" id="linearGradient-2">
            <stop stop-color="#808080" stop-opacity="0.25" offset="0%"></stop>
            <stop stop-color="#808080" stop-opacity="0.12" offset="54%"></stop>
            <stop stop-color="#808080" stop-opacity="0.1" offset="100%"></stop>
        </linearGradient>
        <linearGradient x1="48%" y1="84%" x2="48%" y2="16%" id="linearGradient-3">
            <stop stop-color="#808080" stop-opacity="0.25" offset="0%"></stop>
            <stop stop-color="#808080" stop-opacity="0.12" offset="54%"></stop>
            <stop stop-color="#808080" stop-opacity="0.1" offset="100%"></stop>
        </linearGradient>
    </defs>
    <g id="Page-1" stroke="none" stroke-width="1" fill="none" fill-rule="evenodd">
        <g id="accounts" fill-rule="nonzero">
            <path d="M47.11,80.64 C48.91,92.06 53.51,103.09 53.55,114.64 C53.7,152.38 7.91,175.56 0.9,212.64 C-3.26,234.64 7.52,257.12 22.72,273.53 C37.92,289.94 57.3,301.77 75.15,315.27 C124.537804,352.690654 162.606132,403.049247 185.14,460.77 C189.65,472.37 193.53,484.33 194.81,496.71 C195.74,505.71 195.3,514.92 197.41,523.71 C205.76,558.6 248.1,572.14 283.9,574.4 C341.558731,577.979304 399.273256,568.340835 452.64,546.22 C464.64,541.22 477.03,535.54 489.91,536.95 C500.21,538.08 509.4,543.65 518.44,548.72 C545.062438,563.661143 573.395031,575.325925 602.82,583.46 C619.12,587.96 636.23,591.38 652.88,588.46 C702.88,579.64 729.45,519 778.51,505.74 C812.45,496.57 847.77,512.59 878.21,530.18 C908.65,547.77 940.07,568.03 975.21,568.08 C1022.09,568.14 1060.63,532.66 1092.43,498.22 C1099.1,490.99 1105.88,483.43 1109.06,474.12 C1115.51,455.22 1105.06,433.99 1089.61,421.29 C1074.16,408.59 1054.68,402.29 1036.07,395.03 C1004.52669,382.723594 974.424303,367.003421 946.3,348.15 C928.1,335.95 910.47,322.15 898.02,304.15 C887.31,288.63 880.88,270.64 873.7,253.2 C857.96,215.01 835.7,176.2 798.53,158.28 C768.18,143.64 732.93,145.28 699.24,144.89 C649.6,144.34 598.7,138.37 554.69,115.41 C517.52,96.02 486.99,65.41 449.27,47.08 C389.27,17.95 320.68,23.66 256.03,24.76 C224.96,25.29 188.03,28.39 158.19,18.21 C136.12,10.68 124.76,-4.71 99.41,1.49 C64.74,9.94 41.57,45.41 47.11,80.64 Z" id="Path" fill="#A1B2C3" opacity="0.1"></path>
            <path d="M966.33,355.53 C964.760336,350.332551 964.925315,344.765378 966.8,339.67 C969.8,331.91 977.11,326.31 979.68,318.38 C984.46,303.65 971.58,289.86 963.68,276.51 C956.433297,264.123656 953.149672,249.81668 954.27,235.51 C955.5,220.15 961.79,205.46 962.27,190.06 C962.7,175.71 958.05,161.75 953.46,148.15 C949.67,136.91 945.81,125.54 939.4,115.56 C927.28,96.69 905.75,84.83 883.61,82.87 C873.16,81.94 862.94,85.34 852.67,84.01 C838.41,82.17 824.93,78.47 810.39,78.01 C796.58,77.6 781.31,79.35 771.9,89.47 C764.71,97.22 762.41,108.41 755.83,116.69 C746.49,128.44 730.16,132.47 719.83,143.35 C710.749227,153.132991 707.506395,166.982503 711.3,179.78 C712.73,184.42 715.07,188.73 716.59,193.34 C722.98,212.6 714.59,233.2 709.52,252.84 C708.948875,254.444699 708.844845,256.178524 709.22,257.84 C710.02,260.24 712.54,261.5 714.63,262.92 C721.47,267.58 724.96,276.02 725.63,284.27 C726.3,292.52 724.39,300.74 722.51,308.8 C717.72,329.29 711.73,351.24 695.94,364.87 C693.072843,358.032529 689.682798,351.426287 685.8,345.11 C676.14,329.45 668.99,310.11 668.87,291.6 C668.862993,291.54355 668.862993,291.48645 668.87,291.43 C668.87,290.43 668.92,289.43 668.98,288.43 C670.23,266.59 679.67,245.52 679.46,223.78 C679.46,222.02 679.41,220.256667 679.31,218.49 C678.08,199.88 669.14,182.67 658.89,167.09 C651.24,155.46 642.62,144.23 631.58,135.76 C614.51,122.77 592.82,117.13 571.51,114.15 C550.2,111.17 530.81,108.37 509.33,106.93 C486.23,105.38 460.81,104.51 442.55,118.73 C418.74,137.27 417.42,173.08 399.27,197.18 C388.47,211.52 371.27,222.6 365.58,238.89 C364.040781,234.892488 362.758176,230.800843 361.74,226.64 C361.68,226.36 361.62,226.09 361.56,225.81 C368.422235,206.154185 370.018498,185.044211 366.19,164.58 C366.641707,161.265677 366.872217,157.924954 366.88,154.58 C366.991724,150.939901 366.597971,147.301899 365.71,143.77 C363.14,134.03 356.05,126.24 349.2,118.85 C346.706157,116.028671 343.998101,113.404197 341.1,111 C304.075479,66.1426014 240.004414,54.7142906 189.754225,84.0045606 C139.504037,113.294831 117.873691,174.67753 138.66,229 C137.78,235.82 135.14,242.45 130.29,247.26 C128.08,249.45 125.22,252.19 125.7,254.99 C125.551077,255.787361 125.663299,256.61149 126.02,257.34 C126.511318,258.21269 127.195359,258.961714 128.02,259.53 C135.015928,264.876347 143.728632,267.473437 152.51,266.83 C159.919961,288.607984 174.447105,307.256553 193.75,319.77 C193.75,320.436667 193.726667,321.083333 193.68,321.71 C193.68,322.82 193.59,323.92 193.54,325.04 C193.54,325.29 193.54,325.54 193.54,325.79 C193.54,325.7 193.54,325.6 193.54,325.5 C193.54,325.4 158.72,370.89 126.54,372.58 C109.36,373.48 94.37,385.07 83.01,398.32 C69.37,414.22 60.95,432.5 60.23,437.56 C58.9,446.84 49.62,491.94 49.62,491.94 L316.96,491.94 C313.8,508.18 309.54,528.87 309.54,528.87 L742.33,528.87 C741.33,514.96 740.22,502.1 739.19,491.21 L793.6,491.21 L793.54,491.54 L1044.54,491.54 L1060.46,467.65 C1056.51,398.04 1015.45,359.77 966.33,355.53 Z M341.43,277.77 C347.076591,280.80813 353.142601,282.991893 359.43,284.25 C362.16,284.81 365.21,285.16 367.54,283.63 C369.084265,282.463599 370.227137,280.845404 370.81,279 L370.93,279.3 C377.68,296.3 383.93,313.84 385.14,332.1 C385.25,333.82 385.32,335.54 385.33,337.27 C385.357074,347.686046 383.207831,357.992872 379.02,367.53 C356.410919,355.640279 334.607308,342.278176 313.75,327.53 L312.34,326.93 C312.34,327.04 312.83,328.29 313.41,330.4 C313.55,330.91 313.7,331.47 313.85,332.07 C312.42,327.45 311.12,322.73 309.98,317.92 C309.85,317.35 309.72,316.78 309.59,316.21 C323.20783,306.215162 334.145255,293.010557 341.43,277.77 Z" id="Shape" fill="url(#linearGradient-1)"></path>
            <path d="M193.51,325.48 L193.51,324.83 L193.51,325.48 Z" id="Path" fill="url(#linearGradient-2)"></path>
            <path d="M193.44,324.83 L193.44,324.15 L193.44,324.83 Z" id="Path" fill="url(#linearGradient-3)"></path>
            <path d="M806.38,81.55 C792.79,81.14 777.75,82.87 768.5,92.83 C761.42,100.45 759.16,111.47 752.68,119.62 C743.49,131.19 727.42,135.15 717.24,145.86 C708.300266,155.489326 705.106861,169.122126 708.84,181.72 C710.25,186.28 712.55,190.53 714.05,195.06 C720.34,214.06 712.13,234.29 707.05,253.62 C706.483362,255.205143 706.382724,256.919445 706.76,258.56 C707.54,260.92 710.03,262.16 712.08,263.56 C718.81,268.15 722.25,276.45 722.86,284.56 C723.47,292.67 721.64,300.77 719.79,308.7 C714.88,329.7 708.68,352.31 691.63,365.54 C684.43,371.19 674.81,375.77 672.93,384.77 C670.73,395.31 680.79,404.27 690.44,409.04 C718.77,423.04 751.66,423.24 782.65,429.48 C809.94,434.98 837.16,445.4 864.78,441.84 C877.09,440.26 888.86,435.93 900.51,431.64 L973.05,404.91 C975.099164,404.283888 977.026724,403.313345 978.75,402.04 C983.12,398.4 983.27,391.48 980.89,386.31 C978.51,381.14 974.19,377.18 970.39,372.94 C962.11,363.67 955.81,350.58 960.33,339 C963.33,331.36 970.48,325.85 973.01,318 C977.71,303.5 965.01,289.92 957.31,276.78 C950.186756,264.601287 946.955781,250.536426 948.05,236.47 C949.26,221.35 955.45,206.89 955.9,191.73 C956.32,177.61 951.75,163.87 947.23,150.48 C943.5,139.42 939.7,128.23 933.39,118.4 C921.46,99.83 900.27,88.16 878.47,86.22 C868.18,85.31 858.13,88.65 848.02,87.35 C833.97,85.62 820.69,81.98 806.38,81.55 Z" id="Path" fill="#F7D6C8"></path>
            <path d="M826.67,478.36 C826.67,478.36 744.43,426.8 776.41,367.36 C783.81,353.62 787.08,340.62 787.75,328.75 C787.92628,325.622482 787.92628,322.487518 787.75,319.36 C787.75,319.21 787.75,319.06 787.75,318.91 C787.643333,317.296667 787.5,315.71 787.32,314.15 C783.51,282.77 763.35,262.32 763.35,262.32 C763.35,262.32 899.76,222.51 876.92,258.4 C866.32,275.06 869.49,291.4 876.59,308.31 C877.34,310.09 878.14,311.89 878.97,313.68 C887.17,331.51 898.55,349.98 901.73,370.01 C908.25,411.13 826.67,478.36 826.67,478.36 Z" id="Path" fill="#EFB7B9"></path>
            <path d="M876.92,258.4 C866.32,275.06 869.49,291.4 876.59,308.31 C849.835905,325.559209 816.074863,327.78222 787.29,314.19 C783.51,282.77 763.35,262.32 763.35,262.32 C763.35,262.32 899.77,222.5 876.92,258.4 Z" id="Path" fill="#000000" opacity="0.1"></path>
            <circle id="Oval" fill="#EFB7B9" cx="826.66" cy="229.03" r="92.03"></circle>
            <path d="M787.75,319.4 C787.75,319.25 787.75,319.1 787.75,318.95 L787.86,318.77 C787.8,318.99 787.76,319.2 787.75,319.4 Z" id="Path" fill="#000000" opacity="0.1"></path>
            <path d="M826.67,478.36 C826.67,478.36 744.43,426.8 776.41,367.36 C783.81,353.62 787.08,340.62 787.75,328.75 C789.62,343.43 799.75,361.68 818.19,386.94 C826.19,397.94 829.63,413.32 830.72,428.69 L832.55,430.02 L841.55,424.58 C842.55,407.58 845.99,390.4 854.13,378.22 C875.52,346.22 880.6,330.22 879.02,313.64 C887.22,331.47 898.6,349.94 901.78,369.97 C908.25,411.13 826.67,478.36 826.67,478.36 Z" id="Path" fill="#000000" opacity="0.1"></path>
            <path d="M958.51,354.51 C909.51,350.95 878.51,312.91 878.51,312.91 C881.12,330.73 876.88,346.68 854.03,380.91 C845.94,393.05 842.51,410.2 841.51,427.24 L832.51,432.68 L830.68,431.35 C829.59,415.99 826.16,400.59 818.15,389.6 C795.31,358.27 785.15,337.71 787.8,321.39 C787.8,321.39 762.67,362.18 713.72,365.45 C664.77,368.72 623.65,403.31 619.72,466.62 L635.38,488.16 L789.85,488.16 L789.79,488.49 L1036.79,488.49 L1052.51,464.96 C1048.58,395.84 1007.51,358.07 958.51,354.51 Z" id="Path" fill="#A1B2C3"></path>
            <path d="M958.51,354.51 C909.51,350.95 878.51,312.91 878.51,312.91 C881.12,330.73 876.88,346.68 854.03,380.91 C845.94,393.05 842.51,410.2 841.51,427.24 L832.51,432.68 L830.68,431.35 C829.59,415.99 826.16,400.59 818.15,389.6 C795.31,358.27 785.15,337.71 787.8,321.39 C787.8,321.39 762.67,362.18 713.72,365.45 C664.77,368.72 623.65,403.31 619.72,466.62 L635.38,488.16 L789.85,488.16 L789.79,488.49 L1036.79,488.49 L1052.51,464.96 C1048.58,395.84 1007.51,358.07 958.51,354.51 Z" id="Path" fill="#000000" opacity="0.05"></path>
            <path d="M888.88,184.55 C884.88,194.45 877.78,202.81 870.02,210.15 C859.3,220.3 845.82,229.24 831.08,228.55 C839.116055,221.063874 844.932513,211.507028 847.89,200.93 C838.59,206.35 831.56,214.93 822.68,221.04 C813.8,227.15 801.25,230.3 792.57,223.92 C808.335645,215.993972 821.432224,203.620538 830.24,188.33 C809.16,193.8 798.34,217.54 779.35,228.2 C770.45,233.2 760.04,235.08 749.84,234.86 C742.59,234.71 734.51,233.02 730.47,227 C728.11,223.5 727.56,219.1 727.47,214.87 C727.03,195.69 734.84,176.87 746.87,161.94 C758.9,147.01 774.87,135.66 791.95,126.85 C798.03,123.71 804.37,120.85 811.14,119.85 C819.56,118.63 828.14,120.42 836.4,122.32 C847.14,124.78 857.94,127.48 867.83,132.32 C888.94,142.77 898.16,161.71 888.88,184.55 Z" id="Path" fill="#000000" opacity="0.1"></path>
            <path d="M888.88,183.24 C884.88,193.14 877.78,201.5 870.02,208.84 C859.3,218.99 845.82,227.93 831.08,227.24 C839.116055,219.753874 844.932513,210.197028 847.89,199.62 C838.59,205.04 831.56,213.62 822.68,219.73 C813.8,225.84 801.25,228.99 792.57,222.61 C808.335645,214.683972 821.432224,202.310538 830.24,187.02 C809.16,192.49 798.34,216.23 779.35,226.89 C770.45,231.89 760.04,233.77 749.84,233.55 C742.59,233.4 734.51,231.71 730.47,225.69 C728.11,222.19 727.56,217.79 727.47,213.56 C727.03,194.38 734.84,175.56 746.87,160.63 C758.9,145.7 774.87,134.35 791.95,125.54 C798.03,122.4 804.37,119.54 811.14,118.54 C819.56,117.32 828.14,119.11 836.4,121.01 C847.14,123.47 857.94,126.17 867.83,131.01 C888.94,141.44 898.16,160.4 888.88,183.24 Z" id="Path" fill="#F7D6C8"></path>
            <circle id="Oval" fill="#C3705A" cx="254.32" cy="188.31" r="116.83"></circle>
            <path d="M359.08,413.16 C359.08,413.16 252.08,440.57 249.43,443.16 C246.78,445.75 159.36,450.34 184.81,396.82 C194.16,377.17 198.05,350.48 199.23,324.57 C199.28,323.47 199.33,322.38 199.37,321.29 C200.98,277.86 195.26,237.56 195.26,237.56 C195.26,237.56 319.26,188.56 310.13,263.02 C307.85,281.54 309.74,300.15 313.88,317.65 C315.26,323.49 316.88,329.2 318.68,334.74 C333.16,379.38 359.08,413.16 359.08,413.16 Z" id="Path" fill="#ECB4B6"></path>
            <path d="M313.87,317.67 C280.192324,342.63964 234.555534,344.090325 199.36,321.31 C200.97,277.88 195.25,237.58 195.25,237.58 C195.25,237.58 319.25,188.58 310.12,263.04 C307.85,281.57 309.74,300.18 313.87,317.67 Z" id="Path" fill="#000000" opacity="0.1"></path>
            <circle id="Oval" fill="#ECB4B6" cx="253.99" cy="234.97" r="100.51"></circle>
            <path d="M359.08,413.16 C359.08,413.16 252.08,440.57 249.43,443.16 C246.78,445.75 159.36,450.34 184.81,396.82 C194.16,377.17 198.05,350.48 199.23,324.57 C200.23,338.11 207.97,370.9 208.96,381.81 C209.022987,382.447871 209.150301,383.077741 209.34,383.69 C210.79,388.54 215.96,394.13 222.19,399.43 L222.56,399.74 C238.461619,413.077998 261.165684,414.594568 278.7,403.49 C287.594154,397.886604 296.130679,391.734695 304.26,385.07 C315.9,375.46 319.53,362.51 319.98,351.07 C320.166297,345.578434 319.730186,340.083432 318.68,334.69 C333.16,379.38 359.08,413.16 359.08,413.16 Z" id="Path" fill="#000000" opacity="0.1"></path>
            <path d="M494.19,488.88 L57.51,488.88 C57.51,488.88 66.65,444.5 67.95,435.36 C68.66,430.36 76.95,412.36 90.38,396.73 C101.56,383.73 116.31,372.28 133.22,371.39 C164.87,369.73 199.14,325.05 199.14,325.05 L199.14,325.05 C199.9,338.05 207.92,372 208.93,383.14 C208.992987,383.777871 209.120301,384.407741 209.31,385.02 C210.76,389.87 215.93,395.46 222.16,400.76 L222.53,401.07 C238.428121,414.414259 261.134378,415.93502 278.67,404.83 C287.562582,399.224274 296.098966,393.072467 304.23,386.41 C315.87,376.8 319.5,363.85 319.95,352.41 C320.179247,344.818563 319.258835,337.236121 317.22,329.92 C316.65,327.84 316.22,326.62 316.16,326.51 L317.55,327.1 C317.55,327.1 376.68,370.1 430.85,387.68 C437.198411,389.746879 443.189153,392.782728 448.61,396.68 C453.000908,399.85431 457.043434,403.484539 460.67,407.51 C468.002321,415.802113 474.067946,425.133066 478.67,435.2 C491.23,461.82 494.19,488.88 494.19,488.88 Z" id="Path" fill="#A1B2C3"></path>
            <path d="M494.19,488.88 L57.51,488.88 C57.51,488.88 66.65,444.5 67.95,435.36 C68.66,430.36 76.95,412.36 90.38,396.73 C101.56,383.73 116.31,372.28 133.22,371.39 C164.87,369.73 199.14,325.05 199.14,325.05 L199.14,325.05 C199.9,338.05 207.92,372 208.93,383.14 C208.992987,383.777871 209.120301,384.407741 209.31,385.02 C210.76,389.87 215.93,395.46 222.16,400.76 L222.53,401.07 C238.428121,414.414259 261.134378,415.93502 278.67,404.83 C287.562582,399.224274 296.098966,393.072467 304.23,386.41 C315.87,376.8 319.5,363.85 319.95,352.41 C320.179247,344.818563 319.258835,337.236121 317.22,329.92 C316.65,327.84 316.22,326.62 316.16,326.51 L317.55,327.1 C317.55,327.1 376.68,370.1 430.85,387.68 C437.198411,389.746879 443.189153,392.782728 448.61,396.68 C453.000908,399.85431 457.043434,403.484539 460.67,407.51 C468.002321,415.802113 474.067946,425.133066 478.67,435.2 C491.23,461.82 494.19,488.88 494.19,488.88 Z" id="Path" fill="#000000" opacity="0.05"></path>
            <path d="M302.31,201.22 C304.91,211.22 308.31,222.33 317.24,227.54 C318.436574,228.113562 319.539137,228.865463 320.51,229.77 C322.71,232.16 322.04,235.89 321.71,239.13 C320.57,250.25 325.35,261.52 333.19,269.49 C341.03,277.46 351.64,282.33 362.59,284.57 C365.27,285.12 368.28,285.47 370.59,283.96 C372.151079,282.77365 373.298734,281.125646 373.87,279.25 C376.92,271.14 375.63,262.03 373.08,253.75 C370.53,245.47 366.77,237.57 364.84,229.12 C360.25,209.07 366.33,188.35 369.07,167.96 C369.98,161.18 370.51,154.19 368.76,147.58 C366.23,138 359.25,130.32 352.51,123.05 C348.88,119.14 345.17,115.16 340.51,112.6 C326.77,105.09 309.08,111.76 294.41,106.29 C288.54,104.1 283.55,100.1 277.96,97.29 C266.09,91.29 252.02,90.96 239.01,93.69 C226,96.42 213.81,102.03 201.74,107.59 L192.51,111.77 C179.51,117.77 165.58,124.55 158.58,137.1 C151.13,150.46 153.2,167.56 145.75,180.92 C143.49,184.92 140.34,188.76 139.75,193.36 C139.35,196.68 140.37,200 141.32,203.21 C143.64,211.02 145.66,219.05 145.48,227.21 C145.3,235.37 142.7,243.73 136.92,249.47 C134.48,251.89 131.22,254.99 132.72,258.08 C133.212132,258.943898 133.896455,259.682966 134.72,260.24 C144.367778,267.566819 157.091613,269.452949 168.45,265.24 C172.83,263.57 176.97,260.89 179.45,256.94 C181.09864,254.046379 182.292588,250.916482 182.99,247.66 C186.15,235.89 189.33,223.92 189.08,211.73 C188.94,204.73 187.66,197.67 188.68,190.73 C189.7,183.79 193.75,176.64 200.5,174.73 C205.5,173.3 210.85,175.03 216.07,174.98 C223.59,174.92 232.81,166.58 239.78,169.03 C245.78,171.15 250.53,182.63 255.49,187.03 C268.07,198.26 285.63,204.13 302.31,201.22 Z" id="Path" fill="#000000" opacity="0.1"></path>
            <path d="M302.31,199.91 C304.91,209.91 308.31,221.02 317.24,226.23 C318.419255,226.791701 319.507946,227.526483 320.47,228.41 C322.67,230.8 322,234.53 321.67,237.77 C320.53,248.89 325.31,260.16 333.15,268.13 C340.99,276.1 351.6,280.97 362.55,283.21 C365.23,283.76 368.24,284.11 370.55,282.6 C372.111079,281.41365 373.258734,279.765646 373.83,277.89 C376.88,269.78 375.59,260.67 373.04,252.39 C370.49,244.11 366.73,236.21 364.8,227.76 C360.21,207.71 366.29,186.99 369.03,166.6 C369.94,159.82 370.47,152.83 368.72,146.22 C366.19,136.64 359.21,128.96 352.47,121.69 C348.84,117.78 345.13,113.8 340.47,111.24 C326.73,103.73 309.04,110.4 294.37,104.93 C288.5,102.74 283.51,98.74 277.92,95.93 C266.05,89.93 251.98,89.6 238.97,92.33 C225.96,95.06 213.77,100.67 201.7,106.23 L192.59,110.43 C179.59,116.43 165.66,123.21 158.66,135.76 C151.21,149.12 153.28,166.22 145.83,179.58 C143.57,183.58 140.42,187.42 139.83,192.02 C139.43,195.34 140.45,198.66 141.4,201.87 C143.72,209.68 145.74,217.71 145.56,225.87 C145.38,234.03 142.78,242.39 137,248.13 C134.56,250.55 131.3,253.65 132.8,256.74 C133.292132,257.603898 133.976455,258.342966 134.8,258.9 C144.447778,266.226819 157.171613,268.112949 168.53,263.9 C172.91,262.23 177.05,259.55 179.53,255.6 C181.17864,252.706379 182.372588,249.576482 183.07,246.32 C186.23,234.55 189.41,222.58 189.16,210.39 C189.02,203.39 187.74,196.33 188.76,189.39 C189.78,182.45 193.83,175.3 200.58,173.39 C205.58,171.96 210.93,173.69 216.15,173.64 C223.67,173.58 232.89,165.24 239.86,167.69 C245.86,169.81 250.61,181.29 255.57,185.69 C268.07,196.96 285.63,202.83 302.31,199.91 Z" id="Path" fill="#C3705A"></path>
            <rect id="Rectangle" fill="#463A3E" x="408.03" y="242.6" width="229.1" height="196.46"></rect>
            <rect id="Rectangle" fill="#000000" opacity="0.05" x="408.03" y="242.6" width="229.1" height="196.46"></rect>
            <path d="M604.28,525.22 L408.28,525.22 C410.81,510.95 418.21,495.31 432.63,478.45 C444.015945,465.196022 453.328269,450.293606 460.25,434.25 C462.11,429.963333 463.776667,425.666667 465.25,421.36 C469.581441,408.572197 472.528307,395.35656 474.04,381.94 C474.04,381.56 474.13,381.18 474.17,380.8 C475.180724,371.529563 475.588249,362.203265 475.39,352.88 C475.39,352.21 475.39,351.56 475.39,350.88 C474.689643,328.002943 470.905501,305.325 464.14,283.46 L463.89,282.68 C461.76,275.97 460.2,272.2 460.2,272.2 C460.2,272.2 464.09,270.09 470.51,266.98 L471.05,266.72 C494.66,255.38 550.55,231.72 575.19,248.58 L575.59,248.85 C584.21,254.99 588.85,266.26 586.67,285.03 C586.67,285.1 586.67,285.18 586.67,285.25 C586.67,285.6 586.59,285.94 586.56,286.25 C585.240072,299.187168 584.61584,312.185884 584.69,325.19 C584.69,325.84 584.69,326.49 584.69,327.19 C584.69,330.236667 584.723333,333.323333 584.79,336.45 C584.79,336.87 584.79,337.29 584.79,337.71 C584.99,347.81 585.44,358.24 586.07,368.82 C586.94,383.49 588.18,398.43 589.61,413.09 C590.22,419.36 590.88,425.59 591.61,431.72 C591.69,432.44 591.77,433.18 591.85,433.89 C592.69,441.36 593.56,448.68 594.45,455.78 L594.51,456.24 C597.91,484.44 601.67,509.06 604.28,525.22 Z" id="Path" fill="#C17174"></path>
            <path d="M586.59,285.07 C586.59,285.14 586.59,285.22 586.59,285.29 C585.180907,298.575837 584.513206,311.929869 584.59,325.29 C584.59,325.94 584.59,326.59 584.59,327.29 C557.590266,358.627273 513.473124,368.997326 475.34,352.97 C475.34,352.3 475.34,351.65 475.34,350.97 C474.635279,327.818551 470.76606,304.872396 463.84,282.77 C461.71,276.06 460.15,272.29 460.15,272.29 C460.15,272.29 464.04,270.18 470.46,267.07 C493.84,255.77 550.89,231.37 575.51,248.89 C584.12,255.03 588.76,266.3 586.59,285.07 Z" id="Path" fill="#000000" opacity="0.1"></path>
            <circle id="Oval" fill="#C17174" cx="512.35" cy="263.07" r="95.32"></circle>
            <path d="M517.4,524.57 L314.05,524.57 C314.05,524.57 323.19,480.19 324.49,471.05 C325.2,466.05 333.49,448.05 346.92,432.42 C364.169866,418.65951 385.534795,411.078974 407.6,410.89 C446.49,410.31 457.81,423.7 460.88,433.6 C461.952475,436.919299 462.226568,440.444828 461.68,443.89 L469.04,454.55 L517.4,524.57 Z" id="Path" fill="#000000" opacity="0.1"></path>
            <path d="M516.75,525.22 L313.4,525.22 C313.4,525.22 322.54,480.84 323.84,471.7 C324.55,466.7 332.84,448.7 346.27,433.07 C363.519866,419.30951 384.884795,411.728974 406.95,411.54 C445.84,410.96 457.16,424.35 460.23,434.25 C461.302475,437.569299 461.576568,441.094828 461.03,444.54 L468.39,455.2 L516.75,525.22 Z" id="Path" fill="#A1B2C3"></path>
            <path d="M738.73,524.57 L525.67,524.57 C535.83,502.95 562.46,445.31 563.94,431.98 C564.51,426.82 570.01,421.98 577.29,417.87 C579.589198,416.553679 581.955774,415.358709 584.38,414.29 L584.82,414.09 C586.153333,413.503333 587.503333,412.96 588.87,412.46 C607.299472,405.713394 627.549344,405.873262 645.87,412.91 C663.36,419.56 685.87,428.52 703.39,436.91 L703.53,436.98 C708.03,439.14 712.22,441.25 715.91,443.28 C723.29,447.33 728.68,451.03 730.75,453.99 C731.7,455.35 732.75,461.48 733.9,470.99 C735.43,483.85 737.1,502.93 738.73,524.57 Z" id="Path" fill="#000000" opacity="0.1"></path>
            <path d="M739.38,525.22 L526.32,525.22 C536.48,503.6 563.11,445.96 564.59,432.63 C565.16,427.47 570.66,422.63 577.94,418.52 C580.239198,417.203679 582.605774,416.008709 585.03,414.94 L585.47,414.74 C586.803333,414.153333 588.153333,413.61 589.52,413.11 C607.949472,406.363394 628.199344,406.523262 646.52,413.56 C664.01,420.21 686.52,429.17 704.04,437.56 L704.18,437.63 C708.68,439.79 712.87,441.9 716.56,443.93 C723.94,447.98 729.33,451.68 731.4,454.64 C732.35,456 733.4,462.13 734.55,471.64 C736.09,484.5 737.75,503.59 739.38,525.22 Z" id="Path" fill="#A1B2C3"></path>
            <path d="M705.09,420.67 C705.09,423.743333 705.006667,426.82 704.84,429.9 C704.746667,431.4 704.633333,432.9 704.5,434.4 C704.41,435.48 704.3,436.55 704.19,437.62 L704.05,438.86 C702.42,453.4 699.41,467.86 699.05,482.47 C699.05,483.16 699.05,483.85 699.05,484.54 C698.98,498.26 701.2,511.77 704.21,525.22 L581.51,525.22 C581.31,522.73 581.21,520.22 581.24,517.75 C581.24,515.52 581.38,513.29 581.61,511.05 C583.5,492.64 592.91,475.41 594.33,457.12 L594.39,456.28 C594.48,454.91 594.53,453.53 594.51,452.15 C594.51,452.03 594.51,451.91 594.51,451.78 C594.354549,445.732678 593.423611,439.730312 591.74,433.92 C591.66,433.63 591.58,433.34 591.5,433.05 C589.785347,427.286627 587.782834,421.612839 585.5,416.05 L585.06,414.94 C581.73,406.62 578.23,398.37 575.86,390.1 C573.976048,383.941311 573.002423,377.540316 572.97,371.1 C572.97,369.95 573.04,368.8 573.13,367.65 C573.21,366.71 573.32,365.77 573.46,364.82 C573.678536,363.336059 573.972247,361.864166 574.34,360.41 C576.34,352.53 580.61,345.14 584.7,337.82 L584.7,337.82 C589.25,329.67 593.59,321.61 594.37,313.04 C594.468568,311.956305 594.505294,310.867874 594.48,309.78 L594.48,309.78 C594.448876,308.378771 594.315185,306.981702 594.08,305.6 C593.03,299.52 589.9,294.05 587.33,288.44 C587.07,287.87 586.81,287.3 586.56,286.72 C586.56,286.63 586.48,286.54 586.45,286.45 C581.45,274.9 578.55,262.58 575.5,250.32 C575.37,249.79 575.24,249.26 575.1,248.74 C574.35,245.74 573.58,242.74 572.76,239.74 C568.28,223.38 561.9,206.85 549.76,195.04 C537.62,183.23 518.26,177.25 503.06,184.77 C489.91,191.32 482.79,205.98 479.58,220.3 C476.37,234.62 476.11,249.57 471.94,263.65 C471.64,264.676667 471.306667,265.7 470.94,266.72 C470.76,267.24 470.58,267.72 470.4,268.29 C468.61,273.39 466.4,278.44 464.02,283.46 L463.77,283.99 C456.17,300.16 447.34,316.05 447.06,332.3 L447.06,332.51 C447.06,332.95 447.06,333.38 447.06,333.82 C447.111924,337.682024 447.697466,341.518332 448.8,345.22 C450.8,351.88 454.42,357.69 458.64,363.22 C459.473333,364.306667 460.326667,365.383333 461.2,366.45 C465.4,371.61 469.96,376.61 473.95,381.93 L474.08,382.1 C477.114014,386.029254 479.674967,390.301985 481.71,394.83 C486.583053,406.286716 486.655103,419.219701 481.91,430.73 C480.77745,433.363413 479.478148,435.921936 478.02,438.39 C475.45,442.83 472.62,447.15 470.39,451.77 C469.64,453.32 468.97,454.9 468.39,456.5 C463.39,469.38 462.31,483.63 458.23,496.92 C455.070031,507.123767 450.152875,516.6975 443.7,525.21 L313.7,525.21 C315.21,517.82 322.7,481.21 323.88,472.99 C324.59,467.99 332.88,449.99 346.31,434.36 C345.18,435.25 344.09,436.15 343.04,437.05 C334.570792,444.267482 327.232437,452.714848 321.27,462.11 C321.56,461.21 321.86,460.3 322.16,459.4 C323.99,453.94 325.97,448.53 327.98,443.19 C333.8,427.81 340.28,412.12 351.88,400.46 C358.43,393.88 366.4,388.81 372.64,381.94 C383.64,369.85 388.19,353.1 388.06,336.68 C388.06,334.98 387.99,333.29 387.88,331.6 C386.69,313.6 380.54,296.37 373.88,279.6 C370.3,270.6 366.5,261.14 366.67,251.6 C366.680811,250.261828 366.777678,248.925737 366.96,247.6 C369.71,227.83 389.71,215.99 401.72,200.04 C419.58,176.31 420.88,141.04 444.31,122.82 C462.31,108.82 487.31,109.68 510.04,111.2 C531.18,112.62 550.26,115.37 571.24,118.31 C592.22,121.25 613.51,126.77 630.34,139.7 C641.21,148.04 649.69,159.09 657.22,170.54 C667.3,185.88 676.11,202.82 677.32,221.13 C677.41,222.44 677.46,223.74 677.46,225.03 C677.67,246.43 668.38,267.17 667.15,288.66 C667.1,289.66 667.06,290.66 667.05,291.66 C667.043704,291.713148 667.043704,291.766852 667.05,291.82 C666.83,310.45 673.98,330.01 683.71,345.82 C697.533863,368.351357 704.927615,394.236407 705.09,420.67 L705.09,420.67 Z" id="Path" fill="#000000" opacity="0.1"></path>
            <path d="M705.09,420.67 C705.09,423.31 704.99,425.96 704.84,428.59 C704.746667,430.09 704.633333,431.59 704.5,433.09 C704.366667,434.59 704.216667,436.076667 704.05,437.55 C702.42,452.09 699.41,466.55 699.05,481.16 C699.05,482.28 699.05,483.41 699.05,484.53 C699.12,498.24 701.44,511.76 704.5,525.21 L581.62,525.21 C581.39,522.72 581.25,520.21 581.23,517.74 C581.203817,515.068516 581.327344,512.397663 581.6,509.74 C583.49,491.33 592.9,474.1 594.32,455.81 C594.42,454.47 594.49,453.13 594.5,451.81 C594.5,451.5 594.5,451.18 594.5,450.87 C594.372135,444.397373 593.366287,437.972052 591.51,431.77 C589.795347,426.006627 587.792834,420.332839 585.51,414.77 C582.05,406.08 578.34,397.45 575.86,388.77 C574.112432,383.014831 573.140525,377.052228 572.97,371.04 C572.941954,369.451642 572.995357,367.86289 573.13,366.28 C573.21,365.34 573.32,364.4 573.46,363.45 C573.678536,361.966059 573.972247,360.494166 574.34,359.04 C576.34,351.16 580.61,343.77 584.7,336.45 C589.26,328.29 593.62,320.21 594.39,311.63 C594.45,310.98 594.48,310.32 594.5,309.63 L594.5,309.63 C594.547308,307.791304 594.413327,305.95242 594.1,304.14 C593.05,298.06 589.92,292.59 587.35,286.98 C587.09,286.41 586.83,285.84 586.58,285.26 C581.51,273.64 578.58,261.26 575.52,248.86 C574.64,245.32 573.74,241.78 572.79,238.27 C568.31,221.91 561.93,205.38 549.79,193.57 C537.65,181.76 518.32,175.9 503.13,183.46 C489.98,190.01 482.86,204.67 479.65,218.99 C476.44,233.31 476.18,248.26 472.01,262.34 C471.55,263.89 471.01,265.44 470.5,266.98 C468.64,272.25 466.32,277.48 463.88,282.68 C456.07,299.27 446.98,315.59 447.17,332.3 L447.17,332.51 C447.221924,336.372024 447.807466,340.208332 448.91,343.91 C450.91,350.57 454.53,356.38 458.75,361.91 C459.583333,362.996667 460.436667,364.073333 461.31,365.14 C465.56,370.36 470.17,375.41 474.19,380.79 C477.224014,384.719254 479.784967,388.991985 481.82,393.52 C486.693053,404.976716 486.765103,417.909701 482.02,429.42 C480.88745,432.053413 479.588148,434.611936 478.13,437.08 C475.56,441.52 472.73,445.84 470.5,450.46 C469.75,452.01 469.08,453.59 468.5,455.19 C463.5,468.07 462.42,482.32 458.34,495.61 C455.013125,506.338689 449.749644,516.367434 442.81,525.2 L313.4,525.2 C313.4,525.2 322.54,480.82 323.84,471.68 C324.49,467.11 331.5,451.68 343,437.05 C344,435.71 345.14,434.37 346.27,433.05 C336.866307,440.482335 328.716053,449.375363 322.13,459.39 L321.24,460.79 C323.32,454.4 325.61,448.09 327.96,441.87 C333.78,426.49 340.26,410.8 351.86,399.14 C358.41,392.56 366.38,387.49 372.62,380.62 C383.3,368.85 387.92,352.62 388.04,336.62 C388.04,334.48 388.04,332.35 387.86,330.23 C386.67,312.23 380.52,295 373.86,278.23 C370.45,269.61 366.86,260.63 366.65,251.49 C366.603586,249.728376 366.700573,247.965895 366.94,246.22 C369.7,226.56 389.7,214.77 401.71,198.77 C419.57,175.04 420.87,139.77 444.3,121.55 C462.3,107.55 487.3,108.41 510.03,109.93 C531.17,111.35 550.25,114.1 571.23,117.04 C592.21,119.98 613.53,125.49 630.34,138.38 C641.21,146.77 649.69,157.77 657.22,169.23 C667.3,184.57 676.11,201.51 677.32,219.82 C677.44,221.56 677.486667,223.296667 677.46,225.03 C677.29,245.96 668.35,266.3 667.15,287.36 C667.07,288.78 667.03,290.19 667.05,291.62 C667.043704,291.673148 667.043704,291.726852 667.05,291.78 C667.17,310.02 674.21,329.04 683.71,344.45 C697.776067,367.37844 705.179263,393.770937 705.09,420.67 L705.09,420.67 Z" id="Path" fill="#463A3E"></path>
        </g>
    </g>
</svg>