<?xml version="1.0" encoding="UTF-8"?>
<svg width="295px" height="212px" viewBox="0 0 295 212" version="1.1" xmlns="http://www.w3.org/2000/svg" xmlns:xlink="http://www.w3.org/1999/xlink">
    <!-- Generator: Sketch 53.2 (72643) - https://sketchapp.com -->
    <title>welcome</title>
    <desc>Created with Sketch.</desc>
    <defs>
        <linearGradient x1="50.0036425%" y1="100%" x2="50.0036425%" y2="0%" id="linearGradient-1">
            <stop stop-color="#808080" stop-opacity="0.25" offset="0%"></stop>
            <stop stop-color="#808080" stop-opacity="0.12" offset="54%"></stop>
            <stop stop-color="#808080" stop-opacity="0.1" offset="100%"></stop>
        </linearGradient>
        <linearGradient x1="50.0057824%" y1="99.9972097%" x2="50.0057824%" y2="0.00563851898%" id="linearGradient-2">
            <stop stop-color="#808080" stop-opacity="0.25" offset="0%"></stop>
            <stop stop-color="#808080" stop-opacity="0.12" offset="54%"></stop>
            <stop stop-color="#808080" stop-opacity="0.1" offset="100%"></stop>
        </linearGradient>
        <linearGradient x1="-0.0160778747%" y1="49.9868232%" x2="100.035243%" y2="49.9868232%" id="linearGradient-3">
            <stop stop-color="#808080" stop-opacity="0.25" offset="0%"></stop>
            <stop stop-color="#808080" stop-opacity="0.12" offset="54%"></stop>
            <stop stop-color="#808080" stop-opacity="0.1" offset="100%"></stop>
        </linearGradient>
        <linearGradient x1="50%" y1="100%" x2="50%" y2="1.89478063e-12%" id="linearGradient-4">
            <stop stop-color="#808080" stop-opacity="0.25" offset="0%"></stop>
            <stop stop-color="#808080" stop-opacity="0.12" offset="54%"></stop>
            <stop stop-color="#808080" stop-opacity="0.1" offset="100%"></stop>
        </linearGradient>
        <linearGradient x1="50%" y1="100%" x2="50%" y2="0%" id="linearGradient-5">
            <stop stop-color="#808080" stop-opacity="0.25" offset="0%"></stop>
            <stop stop-color="#808080" stop-opacity="0.12" offset="54%"></stop>
            <stop stop-color="#808080" stop-opacity="0.1" offset="100%"></stop>
        </linearGradient>
    </defs>
    <g id="Page-1" stroke="none" stroke-width="1" fill="none" fill-rule="evenodd">
        <g id="welcome">
            <polygon id="Rectangle" fill-opacity="0.2" fill="#A1B2C3" points="60 32 295 32 235 181 0 181"></polygon>
            <g id="Group" opacity="0.7" transform="translate(240.565601, 77.450667)" fill="url(#linearGradient-1)" fill-rule="nonzero">
                <path d="M15.4757222,3.33829333 L15.4757222,0.257226667 L0.101609702,0.257226667 L0.101609702,14.5008 C0.101609702,16.1587146 1.44362999,17.50272 3.09909592,17.50272 L12.4782359,17.50272 C14.1337019,17.50272 15.4757222,16.1587146 15.4757222,14.5008 L15.4757222,11.33776 C17.6837895,11.33776 19.4737817,9.54512008 19.4737817,7.33378667 C19.4737817,5.12245326 17.6837895,3.32981333 15.4757222,3.32981333 L15.4757222,3.33829333 Z M15.4757222,9.80570667 L15.4757222,4.876 C16.3743958,4.84550894 17.2181463,5.30825517 17.6765028,6.08299537 C18.1348593,6.85773557 18.1348593,7.82114443 17.6765028,8.59588463 C17.2181463,9.37062483 16.3743958,9.83337106 15.4757222,9.80288 L15.4757222,9.80570667 Z" id="Shape"></path>
            </g>
            <path d="M255.558677,81.2694933 C253.543124,81.2694933 251.909195,82.9058388 251.909195,84.9243733 C251.909195,86.9429078 253.543124,88.5792533 255.558677,88.5792533 C257.57423,88.5792533 259.208159,86.9429078 259.208159,84.9243733 C259.208159,82.9058388 257.57423,81.2694933 255.558677,81.2694933 Z M255.558677,87.1744 C254.311622,87.1744 253.300684,86.1619666 253.300684,84.9130667 C253.300684,83.6641668 254.311622,82.6517333 255.558677,82.6517333 C256.805732,82.6517333 257.81667,83.6641668 257.81667,84.9130667 C257.81667,86.1619666 256.805732,87.1744 255.558677,87.1744 Z" id="Shape" fill="#A1B2C3" fill-rule="nonzero"></path>
            <path d="M255.558677,81.2694933 C253.543124,81.2694933 251.909195,82.9058388 251.909195,84.9243733 C251.909195,86.9429078 253.543124,88.5792533 255.558677,88.5792533 C257.57423,88.5792533 259.208159,86.9429078 259.208159,84.9243733 C259.208159,82.9058388 257.57423,81.2694933 255.558677,81.2694933 Z M255.558677,87.1744 C254.311622,87.1744 253.300684,86.1619666 253.300684,84.9130667 C253.300684,83.6641668 254.311622,82.6517333 255.558677,82.6517333 C256.805732,82.6517333 257.81667,83.6641668 257.81667,84.9130667 C257.81667,86.1619666 256.805732,87.1744 255.558677,87.1744 Z" id="Shape" fill="#000000" fill-rule="nonzero" opacity="0.1"></path>
            <path d="M241.508313,78.45696 L255.547387,78.45696 L255.547387,91.4596267 C255.547387,92.9817234 254.315306,94.2156267 252.795458,94.2156267 L244.260243,94.2156267 C242.740394,94.2156267 241.508313,92.9817234 241.508313,91.4596267 L241.508313,78.45696 Z" id="Path" fill="#A1B2C3" fill-rule="nonzero"></path>
            <path d="M253.018434,78.45696 L253.018434,91.4596267 C253.018434,92.1868149 252.729987,92.8842194 252.216546,93.3984192 C251.703106,93.9126189 251.006732,94.2014933 250.280617,94.2014933 L251.691863,94.2014933 C253.203918,94.2014933 254.42968,92.9739178 254.42968,91.4596267 L254.42968,78.45696 L253.018434,78.45696 Z" id="Path" fill="#000000" fill-rule="nonzero" opacity="0.1"></path>
            <path d="M244.26871,67.97568 C244.024972,67.9833057 243.797321,68.099372 243.647762,68.2922667 C243.4643,68.6258133 243.797354,69.0045867 244.102183,69.2335467 C244.666681,69.6575467 245.256582,70.0815467 245.640441,70.6666667 C246.0243,71.2517867 246.142845,72.08 245.725116,72.6453333 C245.180375,73.38592 243.876384,73.54704 243.749372,74.4572267 C243.667519,75.0423467 244.172745,75.5426667 244.686439,75.83664 C245.950915,76.5630933 247.582315,76.7553067 248.496803,77.8916267 C248.875017,77.1114667 249.724587,76.6592 250.568512,76.4782933 C251.412437,76.2973867 252.290232,76.3002133 253.148269,76.1701867 C253.435062,76.1649511 253.701839,76.0218985 253.865182,75.78576 C254.105094,75.2995733 253.422051,74.7144533 253.65914,74.2282667 C253.839779,73.8551467 254.364763,73.88624 254.748622,73.7364267 C255.375215,73.4933333 255.632062,72.6877333 255.454245,72.0404267 C255.276428,71.39312 254.774024,70.88432 254.246218,70.4688 C252.834972,69.3381333 251.113252,68.6908267 249.383065,68.2074667 C248.578655,67.9869867 247.63312,67.6421333 246.797663,67.6082133 C245.962205,67.5742933 245.075943,67.84 244.26871,67.97568 Z" id="Path" fill="#EEEEEE" fill-rule="nonzero"></path>
            <path d="M145.746814,97.5256533 L116.3929,189.109653" id="Path" stroke="#E0E0E0" stroke-width="2.25799338"></path>
            <g id="Group" opacity="0.7" transform="translate(74.603087, 0.000000)" fill="url(#linearGradient-2)" fill-rule="nonzero">
                <path d="M93.8873649,199.42416 C90.277398,199.633333 87.0597574,202.66352 87.0597574,202.66352 L85.5045645,198.799467 L85.3775524,198.841867 C86.1368026,195.512053 101.598412,126.841013 86.1198677,120.921973 C74.22871,116.373867 61.6149945,110.745973 51.7306284,110.955147 L51.7306284,94.7244267 L65.5862404,94.7244267 L65.5862404,94.1590933 L76.5544432,94.1590933 C78.6571996,92.6553067 75.600441,91.6150933 72.1880485,90.97344 C72.3275573,90.813922 72.4504983,90.6406028 72.5549724,90.45616 L90.122161,58.8907733 C90.122161,58.8907733 94.1639691,52.2424533 91.5644542,49.0624533 C88.9649394,45.8824533 85.2138479,57.1580267 85.2138479,57.1580267 L70.7824476,77.9707733 C70.7824476,77.9707733 56.2014553,62.76048 46.9493275,55.1991467 C45.9211748,54.1782799 44.7611755,53.2998636 43.5002426,52.5873067 C41.8067475,51.4425067 40.5281588,50.84608 39.8959206,51.0806933 L39.8789857,51.0806933 C38.4744241,50.690955 37.0236958,50.4931815 35.5662183,50.4927467 L34.4118192,50.4927467 L34.4118192,48.1211733 C39.6486515,46.3894592 43.8423024,42.4103229 45.8513782,37.2667733 C49.1506954,31.7940811 49.7583477,25.1073133 47.4997133,19.1280533 C47.6718539,19.1072369 47.8374626,19.049381 47.9851819,18.9584533 C48.5073429,18.62208 48.5496803,17.88432 48.5101654,17.2624533 C48.1252577,13.0341581 45.6840704,9.26756156 41.9845645,7.19386667 C40.5225138,6.39392 38.8459537,5.83989333 37.7677619,4.56789333 C36.8419846,3.47397333 36.4524807,1.94474667 35.329129,1.05152 C33.9969129,-0.00848 32.0719735,0.172426667 30.4377508,0.647306667 C28.618376,1.17476089 26.8947303,1.98967009 25.3318633,3.06128 C23.5649835,4.27392 21.9674531,5.83141333 19.9324366,6.50416 C18.4873208,6.98186667 16.9180154,6.97056 15.4616097,7.42 C13.1961983,8.13815924 11.4039847,9.88794252 10.6295039,12.1377067 C10.2610895,13.3254231 10.1212508,14.5724034 10.2174201,15.8123733 C9.33187015,17.2939936 8.63494454,18.8807762 8.14288864,20.5357333 L7.8154796,20.7138133 L8.13159868,20.57248 C5.87907484,28.1866632 8.15003933,36.4209429 13.9854465,41.79792 C16.2457105,44.7448055 19.3385047,46.9430019 22.862183,48.10704 L22.862183,50.9761067 C20.3481975,51.5191483 17.9498277,52.5028817 15.7777288,53.88192 L15.7777288,53.88192 C15.7777288,53.88192 15.5942668,53.9949867 15.2781477,54.2098133 L15.182183,54.2748267 C13.0455568,55.7277333 5.88771775,61.03056 6.13045204,66.76304 C6.13045204,66.98352 6.13045204,67.2049422 6.13045204,67.4273067 C5.73970757,69.0835535 5.54175599,70.779539 5.54055127,72.4813867 L5.54055127,114.0984 C5.53315963,118.694638 7.07347904,123.159109 9.91259096,126.770347 C3.88939361,128.121493 0.0508048512,130.162347 0.0508048512,132.454773 C0.079701883,132.642107 0.079701883,132.832773 0.0508048512,133.020107 C0.0508048512,137.090507 12.1875193,140.392053 27.1834179,140.392053 C28.9954576,140.392053 30.7651599,140.344 32.4784123,140.25072 L49.4133627,153.977013 L22.2892172,197.64336 C22.2892172,197.64336 13.3419184,204.58 20.2683131,206.89504 C27.1947078,209.21008 41.3410364,210.942827 41.3410364,210.942827 C41.3410364,210.942827 43.6498346,206.89504 40.4745314,205.162293 C37.2992282,203.429547 32.9695259,204.294507 32.9695259,204.294507 L33.5340243,200.826187 C33.5340243,200.826187 80.5849614,160.353973 70.7711577,146.480693 C68.8942007,143.826453 67.0172437,141.087413 65.1261742,138.390773 L72.5323925,139.066347 L74.2258875,202.598507 L74.4375744,202.530667 C74.0142007,203.780053 71.0223594,213.198507 77.655215,211.604267 C84.7566042,209.908267 97.6751488,203.878987 97.6751488,203.878987 C97.6751488,203.878987 97.4973319,199.214987 93.8873649,199.42416 Z M65.5862404,90.1056533 L51.7306284,86.0776533 L51.7306284,74.2056533 L66.7886218,90.20176 C66.049129,90.1424 65.5862404,90.1056533 65.5862404,90.1056533 Z" id="Shape"></path>
            </g>
            <ellipse id="Oval" fill="#000000" fill-rule="nonzero" cx="103.127189" cy="28.27232" rx="20.3219405" ry="20.352"></ellipse>
            <path d="M126.271621,74.91232 L141.781213,91.4002667 C142.443084,92.1050211 143.400971,92.4512577 144.359706,92.3322858 C145.318442,92.2133139 146.162978,91.64341 146.633076,90.7981867 L163.810761,59.9338133 L159.012525,58.2378133 L144.900066,78.5898133 C144.900066,78.5898133 118.405336,50.9337067 114.699405,52.3018133 C110.993473,53.66992 126.271621,74.91232 126.271621,74.91232 Z" id="Path" fill="#A1B2C3" fill-rule="nonzero"></path>
            <path d="M96.6354576,132.010987 L73.7732745,191.370987" id="Path" stroke="#BDBDBD" stroke-width="1.41124587"></path>
            <path d="M107.925424,132.010987 L130.787607,191.370987" id="Path" stroke="#BDBDBD" stroke-width="1.41124587"></path>
            <ellipse id="Oval" fill="#B84733" fill-rule="nonzero" cx="102.280441" cy="132.434987" rx="26.5314223" ry="7.208"></ellipse>
            <ellipse id="Oval" fill="#F55F44" fill-rule="nonzero" cx="102.280441" cy="131.869653" rx="26.5314223" ry="7.208"></ellipse>
            <path d="M91.1146637,145.0504 L116.147343,152.77568" id="Path" stroke="#BDBDBD" stroke-width="1.41124587"></path>
            <path d="M113.443396,145.0504 L88.4107166,152.77568" id="Path" stroke="#BDBDBD" stroke-width="1.41124587"></path>
            <path d="M102.588093,51.728 L110.465667,51.728 C119.195054,51.728 126.271621,58.8150339 126.271621,67.5573333 L126.271621,109.392 L81.1117523,109.392 L81.111753,73.24176 C81.1102556,67.536476 83.3722739,62.0643524 87.4000311,58.0295772 C91.4277884,53.994802 96.891235,51.7279998 102.588093,51.728 Z" id="Path" fill="#A1B2C3" fill-rule="nonzero"></path>
            <path d="M81.111753,109.392 L126.271621,109.392 L126.271621,133.984 L101.151444,133.984 C90.0838284,133.984 81.111753,124.998653 81.111753,113.914667 L81.111753,109.392 Z" id="Path" fill="#39447A" fill-rule="nonzero"></path>
            <path d="M81.7214112,68.70496 L109.33667,94.99296 L139.819581,94.99296 L139.819581,91.0356267 L113.570408,83.4036267 L91.1174862,55.6344533 C91.1174862,55.6344533 80.9198236,61.9350933 81.7214112,68.70496 Z" id="Path" fill="#000000" fill-rule="nonzero" opacity="0.05"></path>
            <path d="M81.7214112,68.1396267 L109.33667,94.4276267 L139.819581,94.4276267 L139.819581,90.4702933 L113.570408,82.8382933 L91.1174862,55.06912 C91.1174862,55.06912 80.9198236,61.36976 81.7214112,68.1396267 Z" id="Path" fill="#A1B2C3" fill-rule="nonzero"></path>
            <path d="M139.819581,90.4589867 C139.819581,90.4589867 154.496538,91.5896533 150.54505,94.41632 L139.819581,94.41632 L139.819581,90.4589867 Z" id="Path" fill="#FDA57D" fill-rule="nonzero"></path>
            <path d="M159.012525,58.2349867 C159.012525,58.2349867 162.681764,47.2109867 165.222007,50.32032 C167.762249,53.4296533 163.810761,59.9309867 163.810761,59.9309867 L159.012525,58.2349867 Z" id="Path" fill="#FDA57D" fill-rule="nonzero"></path>
            <polygon id="Path" fill="#000000" fill-rule="nonzero" opacity="0.05" points="81.111753 109.397653 81.111753 110.71488 126.271621 110.810987 126.271621 109.397653"></polygon>
            <path d="M116.240485,135.555627 L146.610496,138.328587 L148.264476,200.44176 L159.139537,196.89712 C159.139537,196.89712 175.405557,126.51312 159.895965,120.57712 C144.386373,114.64112 127.620772,106.83104 117.612216,113.19952 C107.60366,119.568 116.240485,135.555627 116.240485,135.555627 Z" id="Path" fill="#39447A" fill-rule="nonzero"></path>
            <path d="M118.086395,116.46432 C118.086395,116.46432 134.739096,124.94432 136.997089,134.554987" id="Path" fill="#000000" fill-rule="nonzero" opacity="0.1"></path>
            <path d="M100.304697,133.706987 L124.013627,152.92832 L97.4822051,195.610987 L108.489923,198.72032 C108.489923,198.72032 154.496538,159.146987 144.900066,145.578987 C135.303594,132.010987 125.707122,116.181653 113.852657,115.898987 C101.998192,115.61632 100.304697,133.706987 100.304697,133.706987 Z" id="Path" fill="#39447A" fill-rule="nonzero"></path>
            <polygon id="Path" fill="#000000" fill-rule="nonzero" opacity="0.05" points="137.561588 71.2376533 143.48882 81.4136533 144.900066 78.5869867"></polygon>
            <path d="M97.4822051,195.610987 C97.4822051,195.610987 88.7324807,202.394987 95.5064609,204.65632 C102.280441,206.917653 116.11065,208.613653 116.11065,208.613653 C116.11065,208.613653 118.368644,204.65632 115.263903,202.96032 C112.159162,201.26432 107.925424,202.11232 107.925424,202.11232 L108.489923,198.72032 L97.4822051,195.610987 Z" id="Path" fill="#333333" fill-rule="nonzero"></path>
            <path d="M148.518501,200.249547 C148.518501,200.249547 144.674267,210.92304 151.623241,209.255307 C158.572216,207.587573 171.200044,201.699627 171.200044,201.699627 C171.200044,201.699627 171.027872,197.145867 167.496935,197.349387 C163.965998,197.552907 160.821742,200.515253 160.821742,200.515253 L159.300419,196.736 L148.518501,200.249547 Z" id="Path" fill="#333333" fill-rule="nonzero"></path>
            <rect id="Rectangle" fill="#FDA57D" fill-rule="nonzero" x="98.0467034" y="41.84032" width="11.2899669" height="16.96" rx="5.64498346"></rect>
            <path d="M103.691687,42.4056533 C100.574049,42.4056533 98.0467034,44.9367369 98.0467034,48.0589867 L98.0467034,49.98112 C101.713367,51.1891482 105.670006,51.1891482 109.33667,49.98112 L109.33667,48.0589867 C109.33667,46.5596294 108.741933,45.121682 107.683293,44.0614763 C106.624653,43.0012707 105.18883,42.4056533 103.691687,42.4056533 L103.691687,42.4056533 Z" id="Path" fill="#000000" fill-rule="nonzero" opacity="0.05"></path>
            <ellipse id="Oval" fill="#FDA57D" fill-rule="nonzero" cx="103.691687" cy="32.2296533" rx="18.0639471" ry="18.0906667"></ellipse>
            <path d="M85.6277398,31.4070933 C85.6277398,31.4070933 90.1437266,32.57168 92.6839691,27.4328 C95.2242117,22.29392 97.1999559,19.4898667 107.643175,22.5257067 C118.086395,25.5615467 120.186329,25.9346667 120.688732,23.0627733 C121.033076,21.1010667 117.318677,16.33248 114.930849,13.5114667 C113.767982,12.13488 111.868445,11.31232 109.850364,11.31232 L98.0467034,11.31232 L90.9904741,14.5827733 L85.6277398,19.2552533 L84.4987431,25.5643733 L85.6277398,31.4070933 Z" id="Path" fill="#000000" fill-rule="nonzero" opacity="0.05"></path>
            <path d="M85.6277398,30.84176 C85.6277398,30.84176 90.1437266,32.0063467 92.6839691,26.8674667 C95.2242117,21.7285867 97.1999559,18.9245333 107.643175,21.9603733 C118.086395,24.9962133 120.186329,25.3693333 120.688732,22.49744 C121.033076,20.5357333 117.318677,15.7671467 114.930849,12.9461333 C113.767982,11.5695467 111.868445,10.7469867 109.850364,10.7469867 L98.0467034,10.7469867 L90.9904741,14.01744 L85.6277398,18.68992 L84.4987431,24.99904 L85.6277398,30.84176 Z" id="Path" fill="#000000" fill-rule="nonzero"></path>
            <ellipse id="Oval" fill="#FDA57D" fill-rule="nonzero" cx="87.4623594" cy="30.81632" rx="1.83461963" ry="3.67466667"></ellipse>
            <path d="M86.1499008,21.36112 C85.732172,18.9952 85.3200882,16.51056 86.082161,14.2322667 C86.8390432,12.0321522 88.5916282,10.3210116 90.8070121,9.61914667 C92.218258,9.18101333 93.7649835,9.18949333 95.1790518,8.72309333 C97.1689085,8.06730667 98.7297464,6.54373333 100.459934,5.35653333 C101.988251,4.30871058 103.673787,3.51193035 105.452922,2.99626667 C107.050452,2.53269333 108.933054,2.35461333 110.237045,3.392 C111.332172,4.26544 111.713208,5.76074667 112.619228,6.82922667 C113.67484,8.07296 115.311885,8.61285333 116.742889,9.39584 C120.361911,11.4265744 122.747605,15.1145872 123.118897,19.2524267 C123.16688,19.86016 123.118897,20.58096 122.605204,20.9088533 C122.28758,21.071214 121.92949,21.1370428 121.574994,21.09824 C114.355061,20.9936533 107.126659,20.8918933 99.9377729,20.2276267 C97.7023594,20.02128 95.4641235,19.7612267 93.2202426,19.8460267 C89.7531216,19.9836691 86.3678364,20.9416689 83.3415215,22.6416" id="Path" fill="#000000" fill-rule="nonzero"></path>
            <g id="Group" opacity="0.7" transform="translate(19.000000, 114.480000)" fill="url(#linearGradient-3)" fill-rule="nonzero">
                <path d="M49.1113561,32.2974933 C50.063847,28.4446885 48.5533748,24.4018204 45.3094598,22.1214933 C44.4627122,21.55616 43.536935,21.12368 42.7692172,20.47072 C41.482161,19.38528 40.7454906,17.78256 40.2148622,16.17984 C38.9390959,12.3412267 38.5354796,8.03621333 36.2972437,4.56789333 C34.2594046,1.41050667 30.2938037,0.486186667 26.7741566,0.172426667 C25.4927453,0.0565333333 24.1464168,-0.00282666667 22.9750827,0.528586667 C21.0134509,1.41616 20.0792062,3.73685333 19.9917089,5.89925333 C19.9042117,8.06165333 20.463065,10.1788267 20.6041896,12.3270933 C20.7453142,14.47536 20.3614553,16.84976 18.775215,18.3026667 C17.1889746,19.7555733 14.9225138,19.9336533 12.8197574,20.2248 C10.066818,20.6071142 7.36195116,21.2798306 4.75025358,22.2317333 C2.55717751,23.03168 0.115722161,24.47328 0.0112899669,26.8081067 C-0.073384785,28.7161067 1.46487321,30.23968 2.61927233,31.7576 C4.7784785,34.5842667 5.85667034,38.3409067 5.12564498,41.83184 C4.38050717,45.38496 1.88824697,48.4349333 1.4338258,52.0389333 C1.31810364,52.9547733 1.35197354,53.9271467 1.79510474,54.7355733 C2.14695369,55.3047003 2.61078978,55.7961513 3.15836825,56.18 C4.51316428,57.2286933 6.02601985,58.07104 7.30743109,59.20736 C9.98033076,61.5789333 11.428269,65.0189867 12.5431533,68.41664 C12.6504079,68.7445333 12.7463727,69.0752533 12.8479824,69.4031467 L10.2202426,69.4031467 C4.85966256,69.4186717 0.517905592,73.7668508 0.502403528,79.13536 L0.502403528,79.13536 C0.517905592,84.5038692 4.85966256,88.8520483 10.2202426,88.8675733 L36.4694157,88.8675733 C41.8299957,88.8520483 46.1717526,84.5038692 46.1872547,79.13536 L46.1872547,79.13536 C46.181026,73.7503152 41.8211078,69.3877426 36.4440132,69.3861867 L29.2579493,69.3861867 C30.9514443,67.1050667 32.7352591,64.9624533 35.3601764,64.08336 C37.9850937,63.2042667 41.1603969,63.7215467 43.2208159,61.88704 C44.2256229,60.9938133 44.7590739,59.6709333 45.0046307,58.3480533 C45.4396395,55.9519333 45.0327274,53.4788827 43.853054,51.3492267 C43.0260639,49.87088 41.8180375,48.52256 41.5555458,46.8548267 C41.3325689,45.4245333 41.8377949,43.9744533 42.5462404,42.70528 C44.530452,39.0899733 48.0416318,36.2830933 49.1113561,32.2974933 Z" id="Path"></path>
            </g>
            <path d="M45.6697244,116.758293 C44.4504079,116.648053 43.1689967,116.59152 42.05129,117.097493 C40.1856229,117.945493 39.2937155,120.15312 39.2090408,122.202453 C39.124366,124.251787 39.657817,126.27568 39.7904741,128.325013 C39.9231312,130.374347 39.5590298,132.6272 38.0489967,134.015093 C36.5389636,135.402987 34.3797574,135.566933 32.3786108,135.843947 C29.756624,136.207734 27.1804119,136.848239 24.6929658,137.754773 C22.6043219,138.515147 20.2785888,139.891733 20.1769791,142.113493 C20.0979493,143.93104 21.56,145.38112 22.6607718,146.825547 C24.7183682,149.530667 25.7429327,153.095093 25.0457773,156.419253 C24.3345094,159.811253 21.9607938,162.708587 21.5317751,166.14016 C21.4216979,167.010773 21.4527453,167.93792 21.8761191,168.706773 C22.2110548,169.249183 22.6528201,169.717569 23.1744653,170.08336 C24.464344,171.081173 25.9038148,171.883947 27.1259537,172.96656 C29.6661963,175.227893 31.0492172,178.501173 32.1104741,181.729227 C33.1544174,184.912378 33.9721593,188.165514 34.5575744,191.464267 C36.7506505,190.050933 39.5844322,190.073547 41.9242778,188.920267 C46.9059757,186.4752 48.5825358,179.38592 53.8436604,177.6136 C56.3330981,176.779733 59.3672767,177.268747 61.3289085,175.521867 C62.2857332,174.673867 62.7937817,173.413173 63.0224035,172.15248 C63.4364313,169.876267 63.0525605,167.526698 61.9357442,165.501333 C61.148269,164.088 59.9966924,162.816 59.7454906,161.22176 C59.5309813,159.859307 60.0277398,158.479893 60.6882029,157.264427 C62.5792723,153.821547 65.923925,151.150347 66.9428445,147.354133 C67.8551839,143.681601 66.4157875,139.825548 63.3215877,137.653013 C62.5228225,137.11312 61.6280926,136.703253 60.8942448,136.081387 C59.6664609,135.046827 58.9693054,133.520427 58.4612569,131.996853 C57.244763,128.341973 56.8609041,124.24048 54.7299228,120.938933 C52.796516,117.937013 49.0200221,117.055093 45.6697244,116.758293 Z" id="Path" fill="#4DB6AC" fill-rule="nonzero"></path>
            <path d="M45.633032,116.882667 C45.633032,116.882667 50.2619184,178.959093 38.2268137,189.62976" id="Path" stroke="#535461" stroke-width="0.5" opacity="0.6"></path>
            <rect id="Rectangle" fill="#A1B2C3" fill-rule="nonzero" x="20.6511577" y="182.678987" width="43.4917751" height="18.5344533" rx="9.25212789"></rect>
            <path d="M20.188269,140.977173 C20.188269,140.977173 32.0173319,139.594933 46.4600221,148.394347" id="Path" stroke="#535461" stroke-width="0.5" opacity="0.6"></path>
            <path d="M46.2285777,155.80304 C46.2285777,155.80304 52.802161,144.91472 66.9146196,142.831467" id="Path" stroke="#535461" stroke-width="0.5" opacity="0.6"></path>
            <path d="M21.3454906,166.239093 C21.3454906,166.239093 37.7413451,163.454827 45.2745755,168.09056" id="Path" stroke="#535461" stroke-width="0.5" opacity="0.6"></path>
            <path d="M44.3403308,174.45056 C44.3403308,174.45056 52.9235281,170.54976 62.5792723,173.718453" id="Path" stroke="#535461" stroke-width="0.5" opacity="0.6"></path>
            <path d="M183.189989,116.512373 C183.423812,116.512373 183.613363,116.322542 183.613363,116.088373 C183.613363,115.854205 183.423812,115.664373 183.189989,115.664373 C182.956166,115.664373 182.766615,115.854205 182.766615,116.088373 C182.766615,116.322542 182.956166,116.512373 183.189989,116.512373 L183.189989,116.512373 Z" id="Path" fill="url(#linearGradient-4)" fill-rule="nonzero"></path>
            <path d="M245.313032,97.5256533 L274.666946,202.13776" id="Path" stroke="#E0E0E0" stroke-width="2.25799338"></path>
            <rect id="Rectangle" fill="#E0E0E0" fill-rule="nonzero" x="116.271533" y="94.4615467" width="158.513958" height="6.18474667"></rect>
            <rect id="Rectangle" fill="#535461" fill-rule="nonzero" x="155.343286" y="93.0029867" width="25.9669239" height="3.67466667" rx="1.83461963"></rect>
            <g id="Group" opacity="0.7" transform="translate(171.132304, 52.010667)" fill="url(#linearGradient-5)" fill-rule="nonzero">
                <rect id="Rectangle" x="0.0169349504" y="0.0226133333" width="64.5390959" height="44.6896" rx="7.96507166"></rect>
            </g>
            <rect id="Rectangle" fill="#3E3F49" fill-rule="nonzero" x="172.297993" y="52.85584" width="61.1379934" height="43.8642133" rx="7.57556781"></rect>
            <rect id="Rectangle" fill="#535461" fill-rule="nonzero" x="173.144741" y="52.85584" width="61.1379934" height="43.8642133" rx="7.57556781"></rect>
            <ellipse id="Oval" fill="#E0E0E0" fill-rule="nonzero" cx="206.57151" cy="74.48832" rx="1.97574421" ry="1.97866667"></ellipse>
        </g>
    </g>
</svg>